<?xml version="1.0" encoding="utf-8"?>
<!-- Generator: Adobe Illustrator 22.0.0, SVG Export Plug-In . SVG Version: 6.00 Build 0)  -->
<svg version="1.1" id="Layer_1" xmlns="http://www.w3.org/2000/svg" xmlns:xlink="http://www.w3.org/1999/xlink" x="0px" y="0px"
	 viewBox="0 0 728 90" style="enable-background:new 0 0 728 90;" xml:space="preserve">
<style type="text/css">
	.st0{fill:#003A70;}
	.st1{clip-path:url(#SVGID_2_);fill:#003A70;}
	.st2{clip-path:url(#SVGID_4_);}
	.st3{opacity:0.37;fill:#003A70;}
	.st4{fill:none;}
</style>
<g>
	<g>
		<polygon class="st0" points="458.6,11.6 458.6,15.7 454,15.7 454,11.6 451.4,11.6 451.4,22.4 454,22.4 454,18 458.6,18 
			458.6,22.4 461.2,22.4 461.2,11.6 461.1,11.6 		"/>
		<polygon class="st0" points="470.6,11.6 467.9,15.9 465.2,11.6 462.2,11.6 466.6,18.6 466.6,22.4 469.2,22.4 469.2,18.6 
			473.6,11.6 473.4,11.6 		"/>
		<path class="st0" d="M481.9,11.6v7.9c0,0.3-0.2,0.5-0.5,0.5h-4.1v-8.5h-2.6v10.8h7.6c0.7,0,1.2-0.2,1.6-0.6
			c0.4-0.4,0.6-0.9,0.6-1.6v-8.6h-0.1H481.9z"/>
		<path class="st0" d="M494.4,11.6h-7.6v10.8h2.6v-8.5h4.1c0.3,0,0.5,0.3,0.5,0.5v7.9h2.6v-8.6c0-0.7-0.2-1.2-0.6-1.6
			C495.6,11.8,495.1,11.6,494.4,11.6z"/>
		<path class="st0" d="M506.6,11.6H499v10.8h7.6c0.7,0,1.2-0.2,1.6-0.6c0.4-0.4,0.6-0.9,0.6-1.6v-6.4c0-0.7-0.2-1.2-0.6-1.6
			C507.8,11.8,507.2,11.6,506.6,11.6z M506.2,14.5v5c0,0.3-0.2,0.6-0.5,0.6h-4.1v-6.1h4.1C506,13.9,506.2,14.2,506.2,14.5z"/>
		<path class="st0" d="M513.2,11.6c-0.7,0-1.2,0.2-1.6,0.6c-0.4,0.4-0.6,0.9-0.6,1.6v8.6h2.6V19h4.7v3.3h2.6V11.6h-0.1H513.2z
			 M518.3,13.9v2.8h-4.7v-2.2c0-0.3,0.2-0.5,0.5-0.5H518.3z"/>
		<polygon class="st0" points="525.7,11.6 523.3,11.6 523.3,22.4 525.9,22.4 525.9,11.6 		"/>
	</g>
	<g>
		<g>
			<defs>
				<path id="SVGID_1_" d="M423,22.6L423,22.6L423,22.6z M423.1,22.6C423.1,22.6,423.1,22.6,423.1,22.6L423.1,22.6
					C423.1,22.6,423.1,22.6,423.1,22.6C423.1,22.6,423.1,22.6,423.1,22.6L423.1,22.6C423.1,22.6,423.1,22.6,423.1,22.6"/>
			</defs>
			<use xlink:href="#SVGID_1_"  style="overflow:visible;fill:#003A70;"/>
			<clipPath id="SVGID_2_">
				<use xlink:href="#SVGID_1_"  style="overflow:visible;"/>
			</clipPath>
			<rect x="423" y="22.6" class="st1" width="0" height="0"/>
		</g>
		<g>
			<g>
				<g>
					<g>
						<g>
							<path class="st0" d="M431.2,24.4c8.1,0,14.6-3.4,14.6-7.5c0-4.1-6.5-7.5-14.6-7.5c-8.1,0-14.6,3.4-14.6,7.5
								C416.6,21.1,423.2,24.4,431.2,24.4z M434,20.8c-0.2,0.6-0.7,1.8-1.6,2.3c-0.3,0.1-0.7,0.2-1,0.2c-0.1,0-0.1,0-0.1,0
								c-2.7,0-5.2-0.4-7.3-1c0,0-0.1,0-0.1,0c-0.2-0.1-0.3-0.2-0.3-0.3c0-0.1,0-0.2,0.1-0.2c0,0,0.1-0.1,0.1-0.1
								c0.5-0.4,2-1.5,4.7-2.5c1-0.4,2.2-0.8,3.4-1.1C432.7,17.8,435.4,17.4,434,20.8z M441.4,13.2c0-0.1,0.1-0.2,0.2-0.2
								c0.1,0,0.2,0,0.3,0.1c1.7,1.1,2.7,2.4,2.7,3.8c0,2.6-3.3,4.8-8.1,5.8c-0.3,0.1-0.5,0.1-0.6,0c0,0-0.1-0.1,0-0.2
								c0-0.1,0.1-0.1,0.1-0.2c2.6-3.1,4.6-7.5,5.1-8.8C441.3,13.4,441.3,13.3,441.4,13.2z M428.5,13.1c0.2-0.6,0.7-1.8,1.6-2.3
								c0.3-0.1,0.7-0.2,1-0.2c0.1,0,0.1,0,0.2,0c2.7,0,5.2,0.4,7.3,1c0,0,0.1,0,0.1,0c0.2,0.1,0.3,0.2,0.3,0.3
								c0,0.1-0.1,0.2-0.1,0.2c0,0-0.1,0.1-0.1,0.1c-0.5,0.4-1.9,1.5-4.7,2.5c-1,0.4-2.2,0.8-3.4,1.1
								C429.8,16.1,427.1,16.5,428.5,13.1z M425.9,11.2c0.3-0.1,0.5-0.1,0.6,0c0,0,0.1,0.1,0,0.2c0,0.1-0.1,0.1-0.1,0.2
								c-2.6,3-4.6,7.5-5.1,8.8c0,0.1-0.1,0.2-0.1,0.2c-0.1,0.1-0.1,0.2-0.2,0.2c-0.1,0-0.2,0-0.3-0.1c-1.7-1.1-2.8-2.4-2.8-3.8
								C417.8,14.4,421.1,12.1,425.9,11.2z"/>
						</g>
					</g>
				</g>
			</g>
			<g>
				<g>
					<g>
						<g>
							<g>
								<path class="st0" d="M431.2,24.4c8.1,0,14.6-3.4,14.6-7.5c0-4.1-6.5-7.5-14.6-7.5c-8.1,0-14.6,3.4-14.6,7.5
									C416.6,21.1,423.2,24.4,431.2,24.4z M434,20.8c-0.2,0.6-0.7,1.8-1.6,2.3c-0.3,0.1-0.7,0.2-1,0.2c-0.1,0-0.1,0-0.1,0
									c-2.7,0-5.2-0.4-7.3-1c0,0-0.1,0-0.1,0c-0.2-0.1-0.3-0.2-0.3-0.3c0-0.1,0-0.2,0.1-0.2c0,0,0.1-0.1,0.1-0.1
									c0.5-0.4,2-1.5,4.7-2.5c1-0.4,2.2-0.8,3.4-1.1C432.7,17.8,435.4,17.4,434,20.8z M441.4,13.2c0-0.1,0.1-0.2,0.2-0.2
									c0.1,0,0.2,0,0.3,0.1c1.7,1.1,2.7,2.4,2.7,3.8c0,2.6-3.3,4.8-8.1,5.8c-0.3,0.1-0.5,0.1-0.6,0c0,0-0.1-0.1,0-0.2
									c0-0.1,0.1-0.1,0.1-0.2c2.6-3.1,4.6-7.5,5.1-8.8C441.3,13.4,441.3,13.3,441.4,13.2z M428.5,13.1c0.2-0.6,0.7-1.8,1.6-2.3
									c0.3-0.1,0.7-0.2,1-0.2c0.1,0,0.1,0,0.2,0c2.7,0,5.2,0.4,7.3,1c0,0,0.1,0,0.1,0c0.2,0.1,0.3,0.2,0.3,0.3
									c0,0.1-0.1,0.2-0.1,0.2c0,0-0.1,0.1-0.1,0.1c-0.5,0.4-1.9,1.5-4.7,2.5c-1,0.4-2.2,0.8-3.4,1.1
									C429.8,16.1,427.1,16.5,428.5,13.1z M425.9,11.2c0.3-0.1,0.5-0.1,0.6,0c0,0,0.1,0.1,0,0.2c0,0.1-0.1,0.1-0.1,0.2
									c-2.6,3-4.6,7.5-5.1,8.8c0,0.1-0.1,0.2-0.1,0.2c-0.1,0.1-0.1,0.2-0.2,0.2c-0.1,0-0.2,0-0.3-0.1c-1.7-1.1-2.8-2.4-2.8-3.8
									C417.8,14.4,421.1,12.1,425.9,11.2z"/>
							</g>
						</g>
					</g>
				</g>
				<g>
					<defs>
						<path id="SVGID_3_" d="M431.2,24.4c8.1,0,14.6-3.4,14.6-7.5c0-4.1-6.5-7.5-14.6-7.5c-8.1,0-14.6,3.4-14.6,7.5
							C416.6,21.1,423.2,24.4,431.2,24.4z M434,20.8c-0.2,0.6-0.7,1.8-1.6,2.3c-0.3,0.1-0.7,0.2-1,0.2c-0.1,0-0.1,0-0.1,0
							c-2.7,0-5.2-0.4-7.3-1c0,0-0.1,0-0.1,0c-0.2-0.1-0.3-0.2-0.3-0.3c0-0.1,0-0.2,0.1-0.2c0,0,0.1-0.1,0.1-0.1
							c0.5-0.4,2-1.5,4.7-2.5c1-0.4,2.2-0.8,3.4-1.1C432.7,17.8,435.4,17.4,434,20.8z M441.4,13.2c0-0.1,0.1-0.2,0.2-0.2
							c0.1,0,0.2,0,0.3,0.1c1.7,1.1,2.7,2.4,2.7,3.8c0,2.6-3.3,4.8-8.1,5.8c-0.3,0.1-0.5,0.1-0.6,0c0,0-0.1-0.1,0-0.2
							c0-0.1,0.1-0.1,0.1-0.2c2.6-3.1,4.6-7.5,5.1-8.8C441.3,13.4,441.3,13.3,441.4,13.2z M428.5,13.1c0.2-0.6,0.7-1.8,1.6-2.3
							c0.3-0.1,0.7-0.2,1-0.2c0.1,0,0.1,0,0.2,0c2.7,0,5.2,0.4,7.3,1c0,0,0.1,0,0.1,0c0.2,0.1,0.3,0.2,0.3,0.3
							c0,0.1-0.1,0.2-0.1,0.2c0,0-0.1,0.1-0.1,0.1c-0.5,0.4-1.9,1.5-4.7,2.5c-1,0.4-2.2,0.8-3.4,1.1
							C429.8,16.1,427.1,16.5,428.5,13.1z M425.9,11.2c0.3-0.1,0.5-0.1,0.6,0c0,0,0.1,0.1,0,0.2c0,0.1-0.1,0.1-0.1,0.2
							c-2.6,3-4.6,7.5-5.1,8.8c0,0.1-0.1,0.2-0.1,0.2c-0.1,0.1-0.1,0.2-0.2,0.2c-0.1,0-0.2,0-0.3-0.1c-1.7-1.1-2.8-2.4-2.8-3.8
							C417.8,14.4,421.1,12.1,425.9,11.2z"/>
					</defs>
					<use xlink:href="#SVGID_3_"  style="overflow:visible;fill:#003A70;"/>
					<clipPath id="SVGID_4_">
						<use xlink:href="#SVGID_3_"  style="overflow:visible;"/>
					</clipPath>
					<g class="st2">
						<g>
							
								<image style="overflow:visible;" width="15" height="8" xlink:href="1021F29AB5934202.png"  transform="matrix(1 0 0 1 426 10)">
							</image>
							
								<image style="overflow:visible;" width="12" height="12" xlink:href="1021F29AB5934206.png"  transform="matrix(1 0 0 1 417 10)">
							</image>
							
								<image style="overflow:visible;" width="12" height="12" xlink:href="1021F29AB5934201.png"  transform="matrix(1 0 0 1 434 12)">
							</image>
							
								<image style="overflow:visible;" width="14" height="8" xlink:href="1021F29AB5934203.png"  transform="matrix(1 0 0 1 422 16)">
							</image>
						</g>
						<g>
							<path class="st0" d="M431.2,9.5c-8.1,0-14.6,3.3-14.6,7.5s6.5,7.5,14.6,7.5c8.1,0,14.6-3.3,14.6-7.5S439.3,9.5,431.2,9.5"/>
							<g>
								<path class="st0" d="M430.7,10l-0.4,0c-0.9,0-1.7,0.6-2.2,1.6l-0.1,0.1c-0.9,1.7-1.9,3.8-1.2,4.8c0.7,1,2.3,0.8,4.5,0.2
									c1.9-0.5,5.8-2,8.5-4.1c0.2-0.2,0.5-0.4,0.5-0.7c0-0.3-0.3-0.5-0.9-0.7c-2.4-0.8-5.2-1.3-8.1-1.3L430.7,10z M430.2,10.1
									l0.4,0l0.6,0c2.9,0,5.7,0.4,8.1,1.3c0.5,0.2,0.8,0.4,0.9,0.7c0,0.3-0.2,0.5-0.4,0.7c-2.7,2.1-6.6,3.6-8.5,4.1
									c-2.2,0.6-3.7,0.8-4.4-0.2c-0.1-0.2-0.2-0.4-0.2-0.8c0-0.8,0.3-2,1.4-3.9l0.1-0.1C428.6,10.6,429.3,10.1,430.2,10.1z"/>
								<path class="st0" d="M440.9,12.1c-0.2,0.1-0.4,0.3-0.5,0.5c-1.8,4.1-3.8,7.2-5.8,10c-0.2,0.3-0.3,0.6-0.2,0.7
									c0.2,0.3,0.6,0.3,1,0.2c5.9-0.9,10-3.7,10-6.7c0-1.7-1.5-3.5-3.9-4.8l0,0C441.2,12.1,441,12,440.9,12.1z M434.4,23.4
									c-0.1-0.2,0-0.4,0.2-0.7c2-2.8,4.1-5.9,5.8-10c0.1-0.3,0.3-0.5,0.5-0.5c0.2-0.1,0.3,0,0.5,0.1l0,0c2.4,1.2,3.9,3,3.9,4.7
									c0,3-4.1,5.8-9.9,6.7C435,23.6,434.6,23.6,434.4,23.4z"/>
								<path class="st0" d="M431.2,17.1c-2.1,0.6-5.1,1.6-8.3,3.9c-0.3,0.3-0.7,0.6-0.7,0.9c0,0.3,0.3,0.5,0.8,0.7
									c3.8,1.3,7,1.3,9,1.3c0.8,0,1.6-0.2,2.4-1.7l0,0l0.1-0.2c0.5-1,2-3.6,1-4.8C434.9,16.2,433,16.6,431.2,17.1z M423.1,22.6
									c-0.5-0.2-0.8-0.4-0.8-0.7c0-0.3,0.3-0.6,0.7-0.9c3.1-2.3,6.2-3.3,8.3-3.9c1.7-0.5,3.6-0.9,4.4,0c0.2,0.3,0.3,0.6,0.3,1
									c0,1.3-1,3.1-1.3,3.8l-0.1,0.2c-0.8,1.5-1.6,1.7-2.3,1.7C430.1,23.9,426.9,23.9,423.1,22.6z"/>
								<path class="st0" d="M423.1,22.6C423.1,22.5,423.1,22.5,423.1,22.6L423.1,22.6C423.1,22.5,423.1,22.5,423.1,22.6z
									 M423.1,22.6L423.1,22.6C423.1,22.6,423.1,22.6,423.1,22.6C423.1,22.6,423.1,22.6,423.1,22.6z M423.1,22.6L423.1,22.6
									L423.1,22.6z"/>
								<path class="st0" d="M427.2,10.3L427.2,10.3c-5.9,0.9-10,3.6-10,6.7c0,2.4,2.6,4,3.7,4.6l0,0c0.1,0,0.2,0.1,0.4,0.2
									c0.4,0.1,0.7-0.1,0.8-0.5l0.2-0.6c1.8-4.3,4.9-8.6,5.5-9.4c0.2-0.3,0.3-0.5,0.2-0.7C428,10.3,427.5,10.2,427.2,10.3z
									 M421.3,21.8c-0.2-0.1-0.3-0.1-0.4-0.2l0,0c-1.1-0.6-3.7-2.3-3.7-4.6c0-3,4.1-5.8,10-6.7l0,0c0.3-0.1,0.8,0,0.9,0.3
									c0.1,0.2,0,0.4-0.2,0.6c-0.7,0.8-3.7,5.1-5.5,9.4l-0.2,0.6C422,21.7,421.7,21.9,421.3,21.8z"/>
							</g>
						</g>
					</g>
					<g class="st2">
						<path class="st3" d="M431.2,9.5c-8.1,0-14.6,3.3-14.6,7.5s6.5,7.5,14.6,7.5c8.1,0,14.6-3.3,14.6-7.5S439.3,9.5,431.2,9.5z
							 M441.4,21.8c-2.7,1.4-6.3,2.1-10.2,2.1c-3.8,0-7.5-0.8-10.2-2.1c-2.6-1.3-4-3.1-4-4.9c0-1.8,1.4-3.6,4-4.9
							c2.7-1.4,6.3-2.1,10.2-2.1c3.8,0,7.5,0.8,10.2,2.1c2.6,1.3,4,3.1,4,4.9C445.4,18.7,444,20.5,441.4,21.8z"/>
					</g>
				</g>
			</g>
		</g>
	</g>
</g>
<rect class="st4" width="728" height="90"/>
</svg>
