<?xml version="1.0" encoding="utf-8"?>
<!-- Generator: Adobe Illustrator 22.0.0, SVG Export Plug-In . SVG Version: 6.00 Build 0)  -->
<svg version="1.1" id="Layer_1" xmlns="http://www.w3.org/2000/svg" xmlns:xlink="http://www.w3.org/1999/xlink" x="0px" y="0px"
	 viewBox="0 0 728 90" style="enable-background:new 0 0 728 90;" xml:space="preserve">
<style type="text/css">
	.st0{fill:none;}
	.st1{fill:#003A70;}
</style>
<rect class="st0" width="728" height="90"/>
<g>
	<g>
		<g>
			<g>
				<g>
					<g>
						<g>
							<g>
								<path class="st1" d="M433.2,24.5c8,0,14.6-3.4,14.6-7.5c0-4.2-6.6-7.5-14.6-7.5c-8,0-14.6,3.4-14.6,7.5
									S425.2,24.5,433.2,24.5z M436,20.8c-0.2,0.6-0.7,1.7-1.6,2.2c-0.3,0.1-0.7,0.2-1,0.2c-0.1,0-0.1,0-0.1,0
									c-2.7,0-5.2-0.4-7.4-1h-0.1c-0.2-0.1-0.3-0.2-0.3-0.3c0-0.1,0-0.2,0.1-0.2l0.1-0.1c0.5-0.4,1.9-1.5,4.7-2.5
									c1-0.4,2.1-0.9,3.5-1.1C434.7,17.9,437.5,17.4,436,20.8z M443.4,13.2c0.1-0.1,0.1-0.2,0.3-0.2c0.1,0,0.2,0,0.3,0.1
									c1.7,1.1,2.7,2.4,2.7,3.8c0,2.6-3.3,4.8-8,5.8c-0.3,0.1-0.5,0.1-0.6,0c0-0.1-0.1-0.1,0-0.2c0-0.1,0.1-0.1,0.1-0.2
									c2.6-3.1,4.6-7.6,5.1-8.8C443.3,13.4,443.4,13.3,443.4,13.2z M430.5,13.1c0.2-0.6,0.7-1.7,1.6-2.2c0.3-0.1,0.7-0.2,1-0.2
									c0.1,0,0.1,0,0.2,0c2.7,0,5.2,0.4,7.3,1.1h0.1c0.2,0.1,0.3,0.2,0.3,0.3c0,0.1-0.1,0.2-0.1,0.2l-0.1,0.1
									c-0.5,0.4-1.9,1.5-4.7,2.5c-1,0.4-2.2,0.9-3.5,1.1C431.9,16.1,429.1,16.5,430.5,13.1z M427.9,11.2c0.3-0.1,0.6-0.1,0.6,0
									c0,0,0.1,0.1,0,0.2c0,0.1-0.1,0.1-0.1,0.2c-2.6,3-4.6,7.6-5.1,8.8c0,0.1-0.1,0.2-0.1,0.2c-0.1,0.1-0.1,0.2-0.3,0.2
									c-0.1,0-0.2,0-0.3-0.1c-1.7-1.1-2.8-2.4-2.8-3.8C419.9,14.4,423.2,12.2,427.9,11.2z"/>
							</g>
						</g>
					</g>
				</g>
			</g>
		</g>
	</g>
	<g>
		<polygon class="st1" points="460.6,11.7 460.6,15.7 456,15.7 456,11.7 453.5,11.7 453.5,22.4 456,22.4 456,18.1 460.6,18.1 
			460.6,22.4 463.2,22.4 463.2,11.7 463,11.7 		"/>
		<polygon class="st1" points="472.6,11.7 469.9,15.9 467.2,11.7 464.2,11.7 468.7,18.6 468.7,22.4 471.2,22.4 471.2,18.6 
			475.6,11.7 475.4,11.7 		"/>
		<path class="st1" d="M483.9,11.7v7.9c0,0.3-0.2,0.6-0.6,0.6h-4.1v-8.5h-2.5v10.7h7.6c0.7,0,1.3-0.2,1.6-0.6c0.4-0.4,0.6-1,0.6-1.6
			v-8.5h-0.1L483.9,11.7L483.9,11.7z"/>
		<path class="st1" d="M496.4,11.7h-7.6v10.7h2.5V14h4.1c0.3,0,0.6,0.3,0.6,0.6v7.9h2.5v-8.6c0-0.7-0.2-1.3-0.6-1.6
			S497.1,11.7,496.4,11.7z"/>
		<path class="st1" d="M508.5,11.7H501v10.7h7.6c0.7,0,1.3-0.2,1.6-0.6c0.4-0.4,0.6-1,0.6-1.6v-6.4c0-0.7-0.2-1.3-0.6-1.6
			C509.8,11.9,509.2,11.7,508.5,11.7z M508.2,14.5v5c0,0.3-0.2,0.6-0.6,0.6h-4.1V14h4.1C508,14,508.2,14.2,508.2,14.5z"/>
		<path class="st1" d="M515.2,11.7c-0.7,0-1.3,0.2-1.6,0.6c-0.4,0.4-0.6,1-0.6,1.6v8.6h2.5v-3.3h4.6v3.3h2.5V11.7h-0.1H515.2z
			 M520.3,14v2.8h-4.6v-2.2c0-0.3,0.2-0.6,0.6-0.6H520.3z"/>
		<polygon class="st1" points="527.7,11.7 525.3,11.7 525.3,22.4 527.9,22.4 527.9,11.7 		"/>
	</g>
</g>
</svg>
