<?xml version="1.0" encoding="utf-8"?>
<!-- Generator: Adobe Illustrator 22.0.0, SVG Export Plug-In . SVG Version: 6.00 Build 0)  -->
<svg version="1.1" id="Layer_1" xmlns="http://www.w3.org/2000/svg" xmlns:xlink="http://www.w3.org/1999/xlink" x="0px" y="0px"
	 viewBox="0 0 300 600" style="enable-background:new 0 0 300 600;" xml:space="preserve">
<style type="text/css">
	.st0{fill:none;}
	.st1{fill:#003A70;}
	.st2{clip-path:url(#SVGID_2_);fill:#003A70;}
	.st3{clip-path:url(#SVGID_4_);}
	.st4{opacity:0.37;fill:#003A70;}
</style>
<rect class="st0" width="300" height="600"/>
<g>
	<g>
		<polygon class="st1" points="59.8,395 59.8,399.2 55,399.2 55,395 52.4,395 52.4,406.1 55,406.1 55,401.6 59.8,401.6 59.8,406.1 
			62.5,406.1 62.5,395 62.3,395 		"/>
		<polygon class="st1" points="72.2,395 69.4,399.4 66.6,395 63.5,395 68.1,402.2 68.1,406.1 70.7,406.1 70.7,402.2 75.3,395 
			75.1,395 		"/>
		<path class="st1" d="M83.8,395v8.2c0,0.3-0.2,0.6-0.6,0.6H79V395h-2.6v11.1h7.8c0.7,0,1.3-0.2,1.7-0.6c0.4-0.4,0.6-1,0.6-1.7V395
			h-0.1H83.8z"/>
		<path class="st1" d="M96.8,395h-7.8v11.1h2.6v-8.7h4.2c0.3,0,0.6,0.3,0.6,0.6v8.2H99v-8.9c0-0.7-0.2-1.3-0.6-1.7
			C98,395.2,97.5,395,96.8,395z"/>
		<path class="st1" d="M109.3,395h-7.8v11.1h7.8c0.7,0,1.3-0.2,1.7-0.6c0.4-0.4,0.6-1,0.6-1.7v-6.6c0-0.7-0.2-1.3-0.6-1.7
			C110.6,395.2,110,395,109.3,395z M108.9,397.9v5.2c0,0.3-0.2,0.6-0.6,0.6h-4.2v-6.3h4.2C108.7,397.4,108.9,397.6,108.9,397.9z"/>
		<path class="st1" d="M116.2,395c-0.7,0-1.3,0.2-1.7,0.6c-0.4,0.4-0.6,1-0.6,1.7v8.9h2.6v-3.4h4.8v3.4h2.6V395h-0.1H116.2z
			 M121.4,397.4v2.9h-4.8v-2.3c0-0.3,0.2-0.6,0.6-0.6H121.4z"/>
		<polygon class="st1" points="129.1,395 126.6,395 126.6,406.1 129.3,406.1 129.3,395 		"/>
	</g>
	<g>
		<g>
			<defs>
				<path id="SVGID_1_" d="M23.1,406.3L23.1,406.3L23.1,406.3z M23.1,406.3C23.1,406.3,23.1,406.3,23.1,406.3L23.1,406.3
					C23.1,406.3,23.1,406.3,23.1,406.3C23.1,406.3,23.1,406.3,23.1,406.3L23.1,406.3C23.1,406.3,23.1,406.3,23.1,406.3"/>
			</defs>
			<use xlink:href="#SVGID_1_"  style="overflow:visible;fill:#003A70;"/>
			<clipPath id="SVGID_2_">
				<use xlink:href="#SVGID_1_"  style="overflow:visible;"/>
			</clipPath>
			<rect x="23.1" y="406.3" class="st2" width="0" height="0"/>
		</g>
		<g>
			<g>
				<g>
					<g>
						<g>
							<path class="st1" d="M31.5,408.2c8.3,0,15.1-3.5,15.1-7.7c0-4.3-6.8-7.7-15.1-7.7c-8.3,0-15.1,3.5-15.1,7.7
								C16.4,404.7,23.2,408.2,31.5,408.2z M34.4,404.4c-0.2,0.6-0.7,1.8-1.7,2.3c-0.3,0.1-0.7,0.2-1,0.2c-0.1,0-0.1,0-0.1,0
								c-2.8,0-5.4-0.4-7.6-1c0,0-0.1,0-0.1,0c-0.2-0.1-0.3-0.2-0.3-0.3c0-0.1,0-0.2,0.1-0.2c0,0,0.1-0.1,0.1-0.1
								c0.5-0.4,2-1.5,4.9-2.6c1-0.4,2.2-0.9,3.6-1.1C33,401.4,35.9,400.9,34.4,404.4z M42,396.6c0.1-0.1,0.1-0.2,0.3-0.2
								c0.1,0,0.2,0,0.3,0.1c1.8,1.1,2.8,2.5,2.8,3.9c0,2.7-3.4,5-8.3,6c-0.3,0.1-0.5,0.1-0.6,0c0-0.1-0.1-0.1,0-0.2
								c0-0.1,0.1-0.1,0.1-0.2c2.7-3.2,4.7-7.8,5.3-9.1C41.9,396.8,42,396.7,42,396.6z M28.7,396.5c0.2-0.6,0.7-1.8,1.7-2.3
								c0.3-0.1,0.7-0.2,1-0.2c0.1,0,0.1,0,0.2,0c2.8,0,5.4,0.4,7.5,1.1c0,0,0.1,0,0.1,0c0.2,0.1,0.3,0.2,0.3,0.3
								c0,0.1-0.1,0.2-0.1,0.2c0,0-0.1,0.1-0.1,0.1c-0.5,0.4-2,1.5-4.9,2.6c-1,0.4-2.3,0.9-3.6,1.1C30.1,399.6,27.2,400,28.7,396.5z
								 M26,394.5c0.3-0.1,0.6-0.1,0.6,0c0,0,0.1,0.1,0,0.2c0,0.1-0.1,0.1-0.1,0.2c-2.7,3.1-4.7,7.8-5.3,9.1c0,0.1-0.1,0.2-0.1,0.2
								c-0.1,0.1-0.1,0.2-0.3,0.2c-0.1,0-0.2,0-0.3-0.1c-1.8-1.1-2.9-2.5-2.9-3.9C17.7,397.8,21.1,395.5,26,394.5z"/>
						</g>
					</g>
				</g>
			</g>
			<g>
				<g>
					<g>
						<g>
							<g>
								<path class="st1" d="M31.5,408.2c8.3,0,15.1-3.5,15.1-7.7c0-4.3-6.8-7.7-15.1-7.7c-8.3,0-15.1,3.5-15.1,7.7
									C16.4,404.7,23.2,408.2,31.5,408.2z M34.4,404.4c-0.2,0.6-0.7,1.8-1.7,2.3c-0.3,0.1-0.7,0.2-1,0.2c-0.1,0-0.1,0-0.1,0
									c-2.8,0-5.4-0.4-7.6-1c0,0-0.1,0-0.1,0c-0.2-0.1-0.3-0.2-0.3-0.3c0-0.1,0-0.2,0.1-0.2c0,0,0.1-0.1,0.1-0.1
									c0.5-0.4,2-1.5,4.9-2.6c1-0.4,2.2-0.9,3.6-1.1C33,401.4,35.9,400.9,34.4,404.4z M42,396.6c0.1-0.1,0.1-0.2,0.3-0.2
									c0.1,0,0.2,0,0.3,0.1c1.8,1.1,2.8,2.5,2.8,3.9c0,2.7-3.4,5-8.3,6c-0.3,0.1-0.5,0.1-0.6,0c0-0.1-0.1-0.1,0-0.2
									c0-0.1,0.1-0.1,0.1-0.2c2.7-3.2,4.7-7.8,5.3-9.1C41.9,396.8,42,396.7,42,396.6z M28.7,396.5c0.2-0.6,0.7-1.8,1.7-2.3
									c0.3-0.1,0.7-0.2,1-0.2c0.1,0,0.1,0,0.2,0c2.8,0,5.4,0.4,7.5,1.1c0,0,0.1,0,0.1,0c0.2,0.1,0.3,0.2,0.3,0.3
									c0,0.1-0.1,0.2-0.1,0.2c0,0-0.1,0.1-0.1,0.1c-0.5,0.4-2,1.5-4.9,2.6c-1,0.4-2.3,0.9-3.6,1.1C30.1,399.6,27.2,400,28.7,396.5
									z M26,394.5c0.3-0.1,0.6-0.1,0.6,0c0,0,0.1,0.1,0,0.2c0,0.1-0.1,0.1-0.1,0.2c-2.7,3.1-4.7,7.8-5.3,9.1
									c0,0.1-0.1,0.2-0.1,0.2c-0.1,0.1-0.1,0.2-0.3,0.2c-0.1,0-0.2,0-0.3-0.1c-1.8-1.1-2.9-2.5-2.9-3.9
									C17.7,397.8,21.1,395.5,26,394.5z"/>
							</g>
						</g>
					</g>
				</g>
				<g>
					<defs>
						<path id="SVGID_3_" d="M31.5,408.2c8.3,0,15.1-3.5,15.1-7.7c0-4.3-6.8-7.7-15.1-7.7c-8.3,0-15.1,3.5-15.1,7.7
							C16.4,404.7,23.2,408.2,31.5,408.2z M34.4,404.4c-0.2,0.6-0.7,1.8-1.7,2.3c-0.3,0.1-0.7,0.2-1,0.2c-0.1,0-0.1,0-0.1,0
							c-2.8,0-5.4-0.4-7.6-1c0,0-0.1,0-0.1,0c-0.2-0.1-0.3-0.2-0.3-0.3c0-0.1,0-0.2,0.1-0.2c0,0,0.1-0.1,0.1-0.1
							c0.5-0.4,2-1.5,4.9-2.6c1-0.4,2.2-0.9,3.6-1.1C33,401.4,35.9,400.9,34.4,404.4z M42,396.6c0.1-0.1,0.1-0.2,0.3-0.2
							c0.1,0,0.2,0,0.3,0.1c1.8,1.1,2.8,2.5,2.8,3.9c0,2.7-3.4,5-8.3,6c-0.3,0.1-0.5,0.1-0.6,0c0-0.1-0.1-0.1,0-0.2
							c0-0.1,0.1-0.1,0.1-0.2c2.7-3.2,4.7-7.8,5.3-9.1C41.9,396.8,42,396.7,42,396.6z M28.7,396.5c0.2-0.6,0.7-1.8,1.7-2.3
							c0.3-0.1,0.7-0.2,1-0.2c0.1,0,0.1,0,0.2,0c2.8,0,5.4,0.4,7.5,1.1c0,0,0.1,0,0.1,0c0.2,0.1,0.3,0.2,0.3,0.3
							c0,0.1-0.1,0.2-0.1,0.2c0,0-0.1,0.1-0.1,0.1c-0.5,0.4-2,1.5-4.9,2.6c-1,0.4-2.3,0.9-3.6,1.1C30.1,399.6,27.2,400,28.7,396.5z
							 M26,394.5c0.3-0.1,0.6-0.1,0.6,0c0,0,0.1,0.1,0,0.2c0,0.1-0.1,0.1-0.1,0.2c-2.7,3.1-4.7,7.8-5.3,9.1c0,0.1-0.1,0.2-0.1,0.2
							c-0.1,0.1-0.1,0.2-0.3,0.2c-0.1,0-0.2,0-0.3-0.1c-1.8-1.1-2.9-2.5-2.9-3.9C17.7,397.8,21.1,395.5,26,394.5z"/>
					</defs>
					<use xlink:href="#SVGID_3_"  style="overflow:visible;fill:#003A70;"/>
					<clipPath id="SVGID_4_">
						<use xlink:href="#SVGID_3_"  style="overflow:visible;"/>
					</clipPath>
					<g class="st3">
						<g>
							
								<image style="overflow:visible;" width="15" height="8" xlink:href="75E8937A03BFB11D.png"  transform="matrix(1 0 0 1 26 393)">
							</image>
							
								<image style="overflow:visible;" width="13" height="13" xlink:href="75E8937A03BFB11F.png"  transform="matrix(1 0 0 1 16 393)">
							</image>
							
								<image style="overflow:visible;" width="13" height="13" xlink:href="75E8937A03BFB11A.png"  transform="matrix(1 0 0 1 34 395)">
							</image>
							
								<image style="overflow:visible;" width="15" height="8" xlink:href="75E8937A03BFB11B.png"  transform="matrix(1 0 0 1 22 400)">
							</image>
						</g>
						<g>
							<path class="st1" d="M31.5,392.7c-8.3,0-15.1,3.5-15.1,7.7c0,4.3,6.8,7.7,15.1,7.7c8.3,0,15.1-3.5,15.1-7.7
								C46.6,396.2,39.9,392.7,31.5,392.7"/>
							<g>
								<path class="st1" d="M30.9,393.3l-0.4,0c-1,0-1.7,0.6-2.3,1.6l-0.1,0.2c-1,1.7-2,4-1.3,5c0.7,1,2.4,0.8,4.6,0.2
									c2-0.5,6-2,8.8-4.3c0.2-0.2,0.5-0.4,0.5-0.7c0-0.3-0.3-0.5-0.9-0.7c-2.5-0.8-5.3-1.3-8.4-1.3L30.9,393.3z M30.5,393.4l0.4,0
									l0.6,0c3,0,5.9,0.4,8.4,1.3c0.5,0.2,0.8,0.4,0.9,0.7c0,0.3-0.2,0.5-0.5,0.7c-2.8,2.2-6.9,3.7-8.8,4.2
									c-2.2,0.6-3.9,0.8-4.6-0.2c-0.1-0.2-0.2-0.5-0.2-0.9c0-0.8,0.4-2,1.5-4.1l0.1-0.2C28.8,394,29.5,393.4,30.5,393.4z"/>
								<path class="st1" d="M41.5,395.5c-0.2,0.1-0.4,0.3-0.5,0.6c-1.8,4.2-4,7.5-6,10.3c-0.2,0.3-0.3,0.6-0.2,0.8
									c0.2,0.3,0.7,0.3,1,0.2c6.1-0.9,10.3-3.8,10.3-6.9c0-1.8-1.6-3.6-4.1-4.9l0,0C41.8,395.4,41.6,395.4,41.5,395.5z
									 M34.8,407.1c-0.1-0.2,0-0.4,0.2-0.7c2-2.9,4.2-6.1,6-10.3c0.1-0.3,0.3-0.5,0.5-0.6c0.2-0.1,0.3,0,0.5,0.1l0,0
									c2.5,1.3,4.1,3.1,4.1,4.9c0,3.1-4.2,5.9-10.3,6.9C35.4,407.4,34.9,407.3,34.8,407.1z"/>
								<path class="st1" d="M31.5,400.7c-2.1,0.6-5.3,1.6-8.6,4c-0.4,0.3-0.7,0.6-0.7,0.9c0,0.3,0.3,0.5,0.9,0.7
									c3.9,1.4,7.2,1.4,9.3,1.3c0.8,0,1.6-0.2,2.4-1.8l0,0l0.1-0.2c0.6-1,2-3.8,1.1-4.9C35.3,399.7,33.3,400.2,31.5,400.7z
									 M23.2,406.3c-0.5-0.2-0.8-0.4-0.8-0.7c0-0.3,0.3-0.7,0.7-0.9c3.2-2.4,6.4-3.4,8.5-4c1.8-0.5,3.7-0.9,4.5,0
									c0.2,0.3,0.3,0.6,0.3,1c0,1.3-1,3.2-1.4,3.9l-0.1,0.3c-0.8,1.5-1.6,1.7-2.4,1.7C30.3,407.7,27.1,407.6,23.2,406.3z"/>
								<path class="st1" d="M23.1,406.3C23.1,406.3,23.2,406.2,23.1,406.3L23.1,406.3C23.1,406.2,23.1,406.3,23.1,406.3z
									 M23.1,406.3L23.1,406.3C23.1,406.3,23.1,406.3,23.1,406.3C23.1,406.3,23.1,406.3,23.1,406.3z M23.1,406.3L23.1,406.3
									L23.1,406.3z"/>
								<path class="st1" d="M27.3,393.6L27.3,393.6c-6.1,0.9-10.3,3.7-10.3,6.9c0,2.4,2.7,4.2,3.9,4.8l0,0c0.1,0,0.2,0.1,0.4,0.2
									c0.4,0.1,0.7-0.1,0.9-0.6l0.2-0.7c1.9-4.5,5-8.9,5.7-9.7c0.2-0.3,0.3-0.5,0.2-0.7C28.1,393.6,27.7,393.6,27.3,393.6z
									 M21.3,405.5c-0.2-0.1-0.4-0.1-0.4-0.2l0,0c-1.2-0.6-3.8-2.3-3.8-4.8c0-3.1,4.2-6,10.3-6.9l0,0c0.4-0.1,0.8,0,0.9,0.3
									c0.1,0.2,0,0.4-0.2,0.7c-0.7,0.8-3.8,5.2-5.7,9.7l-0.3,0.7C21.9,405.4,21.7,405.6,21.3,405.5z"/>
							</g>
						</g>
					</g>
					<g class="st3">
						<path class="st4" d="M31.5,392.7c-8.3,0-15.1,3.5-15.1,7.7c0,4.3,6.8,7.7,15.1,7.7c8.3,0,15.1-3.5,15.1-7.7
							C46.6,396.2,39.9,392.7,31.5,392.7z M42,405.5c-2.8,1.4-6.5,2.2-10.5,2.2c-4,0-7.7-0.8-10.5-2.2c-2.7-1.4-4.2-3.2-4.2-5
							c0-1.9,1.5-3.7,4.2-5c2.8-1.4,6.5-2.2,10.5-2.2c4,0,7.7,0.8,10.5,2.2c2.7,1.4,4.2,3.2,4.2,5C46.2,402.3,44.7,404.1,42,405.5z"
							/>
					</g>
				</g>
			</g>
		</g>
	</g>
</g>
</svg>
