<?xml version="1.0" encoding="utf-8"?>
<!-- Generator: Adobe Illustrator 22.0.0, SVG Export Plug-In . SVG Version: 6.00 Build 0)  -->
<svg version="1.1" id="Layer_1" xmlns="http://www.w3.org/2000/svg" xmlns:xlink="http://www.w3.org/1999/xlink" x="0px" y="0px"
	 viewBox="0 0 300 600" style="enable-background:new 0 0 300 600;" xml:space="preserve">
<style type="text/css">
	.st0{fill:none;}
	.st1{fill:#003A70;}
</style>
<rect class="st0" width="300" height="600"/>
<g>
	<g>
		<g>
			<g>
				<g>
					<g>
						<g>
							<path class="st1" d="M31.5,411c8.3,0,15.1-3.5,15.1-7.7c0-4.3-6.8-7.7-15.1-7.7s-15.1,3.5-15.1,7.7
								C16.4,407.5,23.2,411,31.5,411z M34.4,407.2c-0.2,0.6-0.7,1.8-1.7,2.3c-0.3,0.1-0.7,0.2-1,0.2c-0.1,0-0.1,0-0.1,0
								c-2.8,0-5.4-0.4-7.6-1h-0.1c-0.2-0.1-0.3-0.2-0.3-0.3c0-0.1,0-0.2,0.1-0.2l0.1-0.1c0.5-0.4,2-1.5,4.9-2.6
								c1-0.4,2.2-0.9,3.6-1.1C33,404.2,35.9,403.7,34.4,407.2z M42,399.4c0.1-0.1,0.1-0.2,0.3-0.2c0.1,0,0.2,0,0.3,0.1
								c1.8,1.1,2.8,2.5,2.8,3.9c0,2.7-3.4,5-8.3,6c-0.3,0.1-0.5,0.1-0.6,0c0-0.1-0.1-0.1,0-0.2c0-0.1,0.1-0.1,0.1-0.2
								c2.7-3.2,4.7-7.8,5.3-9.1C41.9,399.6,42,399.5,42,399.4z M28.7,399.3c0.2-0.6,0.7-1.8,1.7-2.3c0.3-0.1,0.7-0.2,1-0.2
								c0.1,0,0.1,0,0.2,0c2.8,0,5.4,0.4,7.5,1.1h0.1c0.2,0.1,0.3,0.2,0.3,0.3c0,0.1-0.1,0.2-0.1,0.2l-0.1,0.1
								c-0.5,0.4-2,1.5-4.9,2.6c-1,0.4-2.3,0.9-3.6,1.1C30.1,402.4,27.2,402.8,28.7,399.3z M26,397.3c0.3-0.1,0.6-0.1,0.6,0
								c0,0,0.1,0.1,0,0.2c0,0.1-0.1,0.1-0.1,0.2c-2.7,3.1-4.7,7.8-5.3,9.1c0,0.1-0.1,0.2-0.1,0.2c-0.1,0.1-0.1,0.2-0.3,0.2
								c-0.1,0-0.2,0-0.3-0.1c-1.8-1.1-2.9-2.5-2.9-3.9C17.7,400.6,21.1,398.3,26,397.3z"/>
						</g>
					</g>
				</g>
			</g>
		</g>
	</g>
</g>
<g>
	<polygon class="st1" points="59.8,397.8 59.8,402 55,402 55,397.8 52.4,397.8 52.4,408.9 55,408.9 55,404.4 59.8,404.4 59.8,408.9 
		62.5,408.9 62.5,397.8 62.3,397.8 	"/>
	<polygon class="st1" points="72.2,397.8 69.4,402.2 66.6,397.8 63.5,397.8 68.1,405 68.1,408.9 70.7,408.9 70.7,405 75.3,397.8 
		75.1,397.8 	"/>
	<path class="st1" d="M83.8,397.8v8.2c0,0.3-0.2,0.6-0.6,0.6H79v-8.8h-2.6v11.1h7.8c0.7,0,1.3-0.2,1.7-0.6c0.4-0.4,0.6-1,0.6-1.7
		v-8.8h-0.1L83.8,397.8L83.8,397.8z"/>
	<path class="st1" d="M96.8,397.8H89v11.1h2.6v-8.7h4.2c0.3,0,0.6,0.3,0.6,0.6v8.2H99v-8.9c0-0.7-0.2-1.3-0.6-1.7
		S97.5,397.8,96.8,397.8z"/>
	<path class="st1" d="M109.3,397.8h-7.8v11.1h7.8c0.7,0,1.3-0.2,1.7-0.6c0.4-0.4,0.6-1,0.6-1.7V400c0-0.7-0.2-1.3-0.6-1.7
		C110.6,398,110,397.8,109.3,397.8z M108.9,400.7v5.2c0,0.3-0.2,0.6-0.6,0.6h-4.2v-6.3h4.2C108.7,400.2,108.9,400.4,108.9,400.7z"/>
	<path class="st1" d="M116.2,397.8c-0.7,0-1.3,0.2-1.7,0.6c-0.4,0.4-0.6,1-0.6,1.7v8.9h2.6v-3.4h4.8v3.4h2.6v-11.2h-0.1H116.2z
		 M121.4,400.2v2.9h-4.8v-2.3c0-0.3,0.2-0.6,0.6-0.6H121.4z"/>
	<polygon class="st1" points="129.1,397.8 126.6,397.8 126.6,408.9 129.3,408.9 129.3,397.8 	"/>
</g>
</svg>
