<?xml version="1.0" encoding="utf-8"?>
<!-- Generator: Adobe Illustrator 22.0.0, SVG Export Plug-In . SVG Version: 6.00 Build 0)  -->
<svg version="1.1" id="Layer_1" xmlns="http://www.w3.org/2000/svg" xmlns:xlink="http://www.w3.org/1999/xlink" x="0px" y="0px"
	 viewBox="0 0 300 250" style="enable-background:new 0 0 300 250;" xml:space="preserve">
<style type="text/css">
	.st0{fill:none;}
	.st1{fill:#003A70;}
</style>
<rect class="st0" width="300" height="250"/>
<g>
	<g>
		<g>
			<g>
				<g>
					<g>
						<g>
							<g>
								<path class="st1" d="M26,168.6c7.7,0,14-3.2,14-7.1c0-4-6.3-7.1-14-7.1s-14,3.2-14,7.1C12,165.4,18.3,168.6,26,168.6z
									 M28.6,165.1c-0.2,0.6-0.6,1.7-1.6,2.1c-0.3,0.1-0.6,0.2-0.9,0.2c-0.1,0-0.1,0-0.1,0c-2.6,0-5-0.4-7-0.9h-0.1
									c-0.2-0.1-0.3-0.2-0.3-0.3c0-0.1,0-0.2,0.1-0.2l0.1-0.1c0.5-0.4,1.8-1.4,4.5-2.4c0.9-0.4,2-0.8,3.3-1
									C27.3,162.3,30,161.9,28.6,165.1z M35.7,157.9c0.1-0.1,0.1-0.2,0.3-0.2c0.1,0,0.2,0,0.3,0.1c1.7,1,2.6,2.3,2.6,3.6
									c0,2.5-3.1,4.6-7.7,5.5c-0.3,0.1-0.5,0.1-0.6,0c0-0.1-0.1-0.1,0-0.2c0-0.1,0.1-0.1,0.1-0.2c2.5-3,4.3-7.2,4.9-8.4
									C35.6,158.1,35.7,158,35.7,157.9z M23.4,157.8c0.2-0.6,0.6-1.7,1.6-2.1c0.3-0.1,0.6-0.2,0.9-0.2c0.1,0,0.1,0,0.2,0
									c2.6,0,5,0.4,6.9,1h0.1c0.2,0.1,0.3,0.2,0.3,0.3c0,0.1-0.1,0.2-0.1,0.2l-0.1,0.1c-0.5,0.4-1.8,1.4-4.5,2.4
									c-0.9,0.4-2.1,0.8-3.3,1C24.7,160.7,22,161.1,23.4,157.8z M20.9,156c0.3-0.1,0.6-0.1,0.6,0c0,0,0.1,0.1,0,0.2
									c0,0.1-0.1,0.1-0.1,0.2c-2.5,2.9-4.3,7.2-4.9,8.4c0,0.1-0.1,0.2-0.1,0.2c-0.1,0.1-0.1,0.2-0.3,0.2c-0.1,0-0.2,0-0.3-0.1
									c-1.7-1-2.7-2.3-2.7-3.6C13.2,159,16.3,156.9,20.9,156z"/>
							</g>
						</g>
					</g>
				</g>
			</g>
		</g>
	</g>
	<g>
		<polygon class="st1" points="52.1,156.4 52.1,160.3 47.7,160.3 47.7,156.4 45.3,156.4 45.3,166.7 47.7,166.7 47.7,162.5 
			52.1,162.5 52.1,166.7 54.6,166.7 54.6,156.4 54.4,156.4 		"/>
		<polygon class="st1" points="63.6,156.4 61,160.5 58.4,156.4 55.5,156.4 59.8,163.1 59.8,166.7 62.2,166.7 62.2,163.1 66.5,156.4 
			66.3,156.4 		"/>
		<path class="st1" d="M74.3,156.4v7.6c0,0.3-0.2,0.6-0.6,0.6h-3.9v-8.1h-2.4v10.3h7.2c0.6,0,1.2-0.2,1.6-0.6
			c0.4-0.4,0.6-0.9,0.6-1.6v-8.1h-0.1L74.3,156.4L74.3,156.4z"/>
		<path class="st1" d="M86.3,156.4h-7.2v10.3h2.4v-8h3.9c0.3,0,0.6,0.3,0.6,0.6v7.6h2.4v-8.2c0-0.6-0.2-1.2-0.6-1.6
			C87.5,156.6,87,156.4,86.3,156.4z"/>
		<path class="st1" d="M97.9,156.4h-7.2v10.3h7.2c0.6,0,1.2-0.2,1.6-0.6c0.4-0.4,0.6-0.9,0.6-1.6v-6.1c0-0.6-0.2-1.2-0.6-1.6
			C99.1,156.6,98.6,156.4,97.9,156.4z M97.5,159.1v4.8c0,0.3-0.2,0.6-0.6,0.6h-3.9v-5.8H97C97.3,158.6,97.5,158.8,97.5,159.1z"/>
		<path class="st1" d="M104.3,156.4c-0.6,0-1.2,0.2-1.6,0.6c-0.4,0.4-0.6,0.9-0.6,1.6v8.2h2.4v-3.1h4.4v3.1h2.4v-10.4h-0.1H104.3z
			 M109.1,158.6v2.7h-4.4v-2.1c0-0.3,0.2-0.6,0.6-0.6H109.1z"/>
		<polygon class="st1" points="116.2,156.4 113.9,156.4 113.9,166.7 116.4,166.7 116.4,156.4 		"/>
	</g>
</g>
</svg>
