<?xml version="1.0" encoding="utf-8"?>
<!-- Generator: Adobe Illustrator 22.0.0, SVG Export Plug-In . SVG Version: 6.00 Build 0)  -->
<svg version="1.1" id="Layer_1" xmlns="http://www.w3.org/2000/svg" xmlns:xlink="http://www.w3.org/1999/xlink" x="0px" y="0px"
	 viewBox="0 0 160 600" style="enable-background:new 0 0 160 600;" xml:space="preserve">
<style type="text/css">
	.st0{fill:none;}
	.st1{fill:#003A70;}
</style>
<rect class="st0" width="160" height="600"/>
<path class="st1" d="M54.5,502.1h2.1h0.1v9.2h-2.2v-3.7h-4v3.7h-2.2v-9.2h2.2v3.5h4V502.1z M64.7,502.1H67h0.2l-3.8,6v3.2h-2.2v-3.2
	l-3.8-6h2.6l2.3,3.6L64.7,502.1z M74.3,502.1h2.1h0.1v7.3c0,0.6-0.2,1-0.5,1.4c-0.3,0.3-0.8,0.5-1.4,0.5h-6.4v-9.2h2.2v7.2h3.5
	c0.3,0,0.5-0.2,0.5-0.5V502.1z M84.9,502.1c0.6,0,1,0.2,1.4,0.5c0.3,0.3,0.5,0.8,0.5,1.4v7.3h-2.2v-6.7c0-0.2-0.2-0.5-0.5-0.5h-3.5
	v7.2h-2.2v-9.2H84.9z M95.2,502.1h-6.4v9.2h6.4c0.6,0,1-0.2,1.4-0.5c0.3-0.3,0.5-0.8,0.5-1.4V504c0-0.6-0.2-1-0.5-1.4
	C96.3,502.3,95.8,502.1,95.2,502.1 M94.9,504.5v4.2c0,0.2-0.2,0.5-0.5,0.5H91v-5.2h3.5C94.7,504.1,94.9,504.3,94.9,504.5
	 M100.9,502.1c-0.6,0-1,0.2-1.4,0.5c-0.3,0.3-0.5,0.8-0.5,1.4v7.3h2.2v-2.8h4v2.8h2.2v-9.2h-0.1H100.9z M105.2,504.1v2.4h-4v-1.9
	c0-0.2,0.2-0.5,0.5-0.5H105.2z M111.5,502.1h0.1v9.2h-2.2v-9.2H111.5z"/>
<path class="st1" d="M80,497.2c13.5,0,24.5-5.6,24.5-12.5c0-6.9-10.9-12.5-24.5-12.5c-13.5,0-24.5,5.6-24.5,12.5
	C55.5,491.6,66.5,497.2,80,497.2 M84.6,491c-0.4,0.9-1.1,3-2.7,3.8c-0.5,0.2-1.1,0.4-1.6,0.4c-0.1,0-0.2,0-0.2,0
	c-4.5,0-8.7-0.6-12.2-1.7c0,0-0.1,0-0.1-0.1c-0.3-0.1-0.5-0.3-0.5-0.4c0-0.2,0.1-0.3,0.2-0.4c0-0.1,0.1-0.1,0.2-0.2
	c0.8-0.7,3.3-2.5,7.9-4.2c1.6-0.6,3.6-1.4,5.8-1.8C82.4,486.1,87,485.4,84.6,491 M97,478.4c0.1-0.2,0.2-0.3,0.4-0.3
	c0.1,0,0.3,0,0.5,0.2c2.9,1.8,4.6,4,4.6,6.4c0,4.3-5.6,8-13.5,9.7c-0.5,0.1-0.8,0.1-1,0c-0.1-0.1-0.1-0.2,0-0.4
	c0.1-0.1,0.1-0.2,0.2-0.3c4.3-5.1,7.6-12.6,8.6-14.8C96.8,478.6,96.9,478.5,97,478.4 M75.5,478.2c0.4-0.9,1.1-3,2.7-3.8
	c0.5-0.2,1.1-0.4,1.6-0.4c0.1,0,0.2,0,0.2,0c4.5,0,8.7,0.6,12.2,1.7c0,0,0.1,0,0.1,0.1c0.3,0.1,0.5,0.3,0.5,0.4
	c0,0.2-0.1,0.3-0.2,0.4c-0.1,0.1-0.1,0.1-0.2,0.2c-0.8,0.7-3.3,2.4-7.9,4.2c-1.6,0.6-3.6,1.4-5.8,1.8
	C77.6,483.2,73,483.9,75.5,478.2 M71,475c0.5-0.1,0.8-0.1,1,0c0.1,0.1,0.1,0.2,0,0.4c-0.1,0.1-0.1,0.2-0.2,0.3
	c-4.3,5.1-7.6,12.6-8.6,14.8c-0.1,0.2-0.1,0.3-0.2,0.4c-0.1,0.2-0.2,0.3-0.4,0.3c-0.1,0-0.3,0-0.5-0.2c-2.9-1.8-4.6-4-4.6-6.4
	C57.5,480.3,63.1,476.6,71,475"/>
</svg>
